<?xml version="1.0" encoding="UTF-8" standalone="no"?>
<!-- Generator: Adobe Illustrator 16.0.0, SVG Export Plug-In . SVG Version: 6.00 Build 0)  -->

<svg
   xmlns:dc="http://purl.org/dc/elements/1.1/"
   xmlns:cc="http://creativecommons.org/ns#"
   xmlns:rdf="http://www.w3.org/1999/02/22-rdf-syntax-ns#"
   xmlns:svg="http://www.w3.org/2000/svg"
   xmlns="http://www.w3.org/2000/svg"
   xmlns:sodipodi="http://sodipodi.sourceforge.net/DTD/sodipodi-0.dtd"
   xmlns:inkscape="http://www.inkscape.org/namespaces/inkscape"
   version="1.1"
   id="Capa_1"
   x="0px"
   y="0px"
   width="512px"
   height="512px"
   viewBox="0 0 548.176 548.176"
   style="enable-background:new 0 0 548.176 548.176;"
   xml:space="preserve"
   inkscape:version="0.91 r13725"
   sodipodi:docname="KeyboardIcon.svg"><metadata
     id="metadata69"><rdf:RDF><cc:Work
         rdf:about=""><dc:format>image/svg+xml</dc:format><dc:type
           rdf:resource="http://purl.org/dc/dcmitype/StillImage" /><dc:title></dc:title></cc:Work></rdf:RDF></metadata><defs
     id="defs67" /><sodipodi:namedview
     pagecolor="#000000"
     bordercolor="#666666"
     borderopacity="1"
     objecttolerance="10"
     gridtolerance="10"
     guidetolerance="10"
     inkscape:pageopacity="0"
     inkscape:pageshadow="2"
     inkscape:window-width="1536"
     inkscape:window-height="801"
     id="namedview65"
     showgrid="false"
     inkscape:zoom="0.4609375"
     inkscape:cx="-64"
     inkscape:cy="256"
     inkscape:window-x="-8"
     inkscape:window-y="-8"
     inkscape:window-maximized="1"
     inkscape:current-layer="Capa_1" /><g
     id="g5"
     style="fill:#ffffff;fill-opacity:1"><path
       style="fill:#ffffff;fill-opacity:1"
       inkscape:connector-curvature="0"
       id="path7"
       d="m 537.468,120.342 c -7.139,-7.139 -15.753,-10.709 -25.841,-10.709 l -475.082,0 c -10.088,0 -18.699,3.571 -25.837,10.709 C 3.571,127.48 0,136.094 0,146.179 l 0,255.815 c 0,10.089 3.571,18.698 10.708,25.837 7.139,7.139 15.749,10.712 25.837,10.712 l 475.082,0 c 10.088,0 18.702,-3.573 25.841,-10.712 7.135,-7.139 10.708,-15.748 10.708,-25.837 l 0,-255.815 c 0,-10.085 -3.573,-18.699 -10.708,-25.837 z m -25.841,281.652 -475.082,0 0,-255.815 475.082,0 0,255.815 z" /><path
       style="fill:#ffffff;fill-opacity:1"
       inkscape:connector-curvature="0"
       id="path9"
       d="m 77.657,365.445 27.408,0 c 3.046,0 4.569,-1.526 4.569,-4.568 l 0,-27.408 c 0,-3.039 -1.52,-4.568 -4.569,-4.568 l -27.408,0 c -3.044,0 -4.568,1.529 -4.568,4.568 l 0,27.408 c 0,3.042 1.524,4.568 4.568,4.568 z" /><path
       style="fill:#ffffff;fill-opacity:1"
       inkscape:connector-curvature="0"
       id="path11"
       d="m 77.657,292.362 63.954,0 c 3.045,0 4.57,-1.53 4.57,-4.572 l 0,-27.41 c 0,-3.045 -1.525,-4.565 -4.57,-4.568 l -63.954,0 c -3.044,0 -4.568,1.523 -4.568,4.568 l 0,27.41 c 0,3.042 1.524,4.572 4.568,4.572 z" /><path
       style="fill:#ffffff;fill-opacity:1"
       inkscape:connector-curvature="0"
       id="path13"
       d="m 77.657,219.268 27.408,0 c 3.046,0 4.569,-1.525 4.569,-4.57 l 0,-27.406 c 0,-3.046 -1.52,-4.565 -4.569,-4.57 l -27.408,0 c -3.044,0 -4.568,1.524 -4.568,4.57 l 0,27.406 c 0,3.045 1.524,4.57 4.568,4.57 z" /><path
       style="fill:#ffffff;fill-opacity:1"
       inkscape:connector-curvature="0"
       id="path15"
       d="m 397.43,328.903 -246.679,0 c -3.046,0 -4.57,1.526 -4.57,4.572 l 0,27.404 c 0,3.039 1.524,4.572 4.57,4.572 l 246.67,0 c 3.046,0 4.572,-1.526 4.572,-4.572 l 0,-27.404 c 0.001,-3.045 -1.525,-4.572 -4.563,-4.572 z" /><path
       style="fill:#ffffff;fill-opacity:1"
       inkscape:connector-curvature="0"
       id="path17"
       d="m 182.725,287.79 c 0,3.042 1.523,4.572 4.565,4.572 l 27.412,0 c 3.044,0 4.565,-1.53 4.565,-4.572 l 0,-27.41 c 0,-3.045 -1.518,-4.565 -4.565,-4.568 l -27.412,0 c -3.042,0 -4.565,1.523 -4.565,4.568 l 0,27.41 z" /><path
       style="fill:#ffffff;fill-opacity:1"
       inkscape:connector-curvature="0"
       id="path19"
       d="m 150.751,219.268 27.406,0 c 3.046,0 4.57,-1.525 4.57,-4.57 l 0,-27.406 c 0,-3.046 -1.524,-4.565 -4.57,-4.57 l -27.406,0 c -3.046,0 -4.57,1.524 -4.57,4.57 l 0,27.406 c 0,3.045 1.525,4.57 4.57,4.57 z" /><path
       style="fill:#ffffff;fill-opacity:1"
       inkscape:connector-curvature="0"
       id="path21"
       d="m 255.813,287.79 c 0,3.042 1.524,4.572 4.568,4.572 l 27.408,0 c 3.046,0 4.572,-1.53 4.572,-4.572 l 0,-27.41 c 0,-3.045 -1.526,-4.565 -4.572,-4.568 l -27.408,0 c -3.044,0 -4.568,1.523 -4.568,4.568 l 0,27.41 z" /><path
       style="fill:#ffffff;fill-opacity:1"
       inkscape:connector-curvature="0"
       id="path23"
       d="m 223.837,219.268 27.406,0 c 3.046,0 4.57,-1.525 4.57,-4.57 l 0,-27.406 c 0,-3.046 -1.521,-4.565 -4.57,-4.57 l -27.406,0 c -3.046,0 -4.57,1.524 -4.57,4.57 l 0,27.406 c 0,3.045 1.524,4.57 4.57,4.57 z" /><path
       style="fill:#ffffff;fill-opacity:1"
       inkscape:connector-curvature="0"
       id="path25"
       d="m 328.904,287.79 c 0,3.042 1.525,4.572 4.564,4.572 l 27.412,0 c 3.045,0 4.564,-1.53 4.564,-4.572 l 0,-27.41 c 0,-3.045 -1.52,-4.565 -4.564,-4.568 l -27.412,0 c -3.039,0 -4.564,1.523 -4.564,4.568 l 0,27.41 z" /><path
       style="fill:#ffffff;fill-opacity:1"
       inkscape:connector-curvature="0"
       id="path27"
       d="m 470.513,328.903 -27.404,0 c -3.046,0 -4.572,1.526 -4.572,4.572 l 0,27.404 c 0,3.039 1.526,4.572 4.572,4.572 l 27.404,0 c 3.046,0 4.572,-1.526 4.572,-4.572 l 0,-27.404 c 0,-3.045 -1.523,-4.572 -4.572,-4.572 z" /><path
       style="fill:#ffffff;fill-opacity:1"
       inkscape:connector-curvature="0"
       id="path29"
       d="m 296.928,219.268 27.411,0 c 3.046,0 4.565,-1.525 4.565,-4.57 l 0,-27.406 c 0,-3.046 -1.52,-4.565 -4.565,-4.57 l -27.411,0 c -3.046,0 -4.565,1.524 -4.565,4.57 l 0,27.406 c -10e-4,3.045 1.519,4.57 4.565,4.57 z" /><path
       style="fill:#ffffff;fill-opacity:1"
       inkscape:connector-curvature="0"
       id="path31"
       d="m 370.018,219.268 27.404,0 c 3.046,0 4.572,-1.525 4.572,-4.57 l 0,-27.406 c 0,-3.046 -1.526,-4.565 -4.572,-4.57 l -27.404,0 c -3.046,0 -4.572,1.524 -4.572,4.57 l 0,27.406 c -0.001,3.045 1.526,4.57 4.572,4.57 z" /><path
       style="fill:#ffffff;fill-opacity:1"
       inkscape:connector-curvature="0"
       id="path33"
       d="m 401.991,287.79 c 0,3.042 1.522,4.572 4.568,4.572 l 63.953,0 c 3.046,0 4.572,-1.53 4.572,-4.572 l 0,-100.498 c 0,-3.046 -1.522,-4.565 -4.572,-4.57 l -27.404,0 c -3.046,0 -4.572,1.524 -4.572,4.57 l 0,68.52 -31.976,0 c -3.046,0 -4.568,1.523 -4.568,4.568 l 0,27.41 z" /></g><g
     id="g35" /><g
     id="g37" /><g
     id="g39" /><g
     id="g41" /><g
     id="g43" /><g
     id="g45" /><g
     id="g47" /><g
     id="g49" /><g
     id="g51" /><g
     id="g53" /><g
     id="g55" /><g
     id="g57" /><g
     id="g59" /><g
     id="g61" /><g
     id="g63" /></svg>