<?xml version="1.0" encoding="UTF-8" standalone="no"?>
<!-- Created with Inkscape (http://www.inkscape.org/) -->

<svg
   xmlns:dc="http://purl.org/dc/elements/1.1/"
   xmlns:cc="http://creativecommons.org/ns#"
   xmlns:rdf="http://www.w3.org/1999/02/22-rdf-syntax-ns#"
   xmlns:svg="http://www.w3.org/2000/svg"
   xmlns="http://www.w3.org/2000/svg"
   xmlns:sodipodi="http://sodipodi.sourceforge.net/DTD/sodipodi-0.dtd"
   xmlns:inkscape="http://www.inkscape.org/namespaces/inkscape"
   width="400"
   height="400"
   viewBox="0 0 400 400.00001"
   id="svg2"
   version="1.1"
   inkscape:version="0.91 r13725"
   sodipodi:docname="TodayIcon.svg">
  <defs
     id="defs4" />
  <sodipodi:namedview
     id="base"
     pagecolor="#000000"
     bordercolor="#666666"
     borderopacity="1.0"
     inkscape:pageopacity="0"
     inkscape:pageshadow="2"
     inkscape:zoom="1.28"
     inkscape:cx="69.387388"
     inkscape:cy="234.20828"
     inkscape:document-units="px"
     inkscape:current-layer="layer1"
     showgrid="false"
     inkscape:window-width="1536"
     inkscape:window-height="801"
     inkscape:window-x="-8"
     inkscape:window-y="-8"
     inkscape:window-maximized="1"
     units="px"
     inkscape:snap-to-guides="true"
     inkscape:snap-object-midpoints="true" />
  <metadata
     id="metadata7">
    <rdf:RDF>
      <cc:Work
         rdf:about="">
        <dc:format>image/svg+xml</dc:format>
        <dc:type
           rdf:resource="http://purl.org/dc/dcmitype/StillImage" />
        <dc:title />
      </cc:Work>
    </rdf:RDF>
  </metadata>
  <g
     inkscape:label="Layer 1"
     inkscape:groupmode="layer"
     id="layer1"
     transform="translate(0,-652.36216)">
    <rect
       style="fill:none;fill-opacity:1;stroke:none;stroke-width:5.9368825;stroke-miterlimit:4;stroke-dasharray:none;stroke-opacity:1"
       id="rect4139"
       width="394.06311"
       height="394.06311"
       x="0.97859389"
       y="657.82556"
       ry="1.9977899" />
    <path
       sodipodi:type="star"
       style="fill:#c8c8c8;fill-opacity:1;stroke:none;stroke-width:32;stroke-miterlimit:4;stroke-dasharray:none;stroke-opacity:1"
       id="path4136"
       sodipodi:sides="8"
       sodipodi:cx="199.99998"
       sodipodi:cy="852.36218"
       sodipodi:r1="105.06714"
       sodipodi:r2="202.05219"
       sodipodi:arg1="0.92873822"
       sodipodi:arg2="1.3214373"
       inkscape:flatsided="false"
       inkscape:rounded="0.1"
       inkscape:randomized="0"
       d="m 262.91891,936.50677 c -9.00324,6.73216 -2.16171,108.88393 -13.05591,111.65833 -10.89419,2.7743 -53.74522,-90.20741 -64.87183,-91.81331 -11.1266,-1.6059 -78.52116,75.46401 -88.186248,69.72241 C 87.139831,1020.3326 122.58755,924.28435 115.85539,915.28111 109.12324,906.27787 6.9714197,913.11939 4.1971117,902.2252 1.4228038,891.331 94.404472,848.47998 96.010374,837.35337 c 1.605902,-11.1266 -75.464033,-78.52116 -69.722406,-88.18625 5.741628,-9.66509 101.789842,25.78263 110.793092,19.05047 9.00324,-6.73215 2.16171,-108.88397 13.05591,-111.65828 10.89419,-2.77431 53.74522,90.20736 64.87182,91.81326 11.12661,1.6059 78.52117,-75.46403 88.18626,-69.7224 9.66509,5.74162 -25.78263,101.78984 -19.05048,110.79309 6.73216,9.00324 108.88398,2.16171 111.65829,13.05591 2.77431,10.89419 -90.20736,53.74522 -91.81326,64.87182 -1.60591,11.12661 75.46403,78.52116 69.7224,88.18625 -5.74163,9.6651 -101.78984,-25.78262 -110.79309,-19.05047 z"
       inkscape:transform-center-x="-17.918366"
       inkscape:transform-center-y="-3.2120806"
       transform="matrix(0.13052618,0.99144489,-0.99144489,0.13052618,1018.9649,542.81764)" />
    <circle
       style="fill:#c8c8c8;fill-opacity:1;stroke:none;stroke-width:32;stroke-miterlimit:4;stroke-dasharray:none;stroke-opacity:1"
       id="path4137"
       cx="200"
       cy="852.36218"
       r="125" />
    <circle
       style="fill:#c8c8c8;fill-opacity:1;stroke:#000000;stroke-width:34.52793503;stroke-miterlimit:4;stroke-dasharray:none;stroke-opacity:1"
       id="path4142"
       cx="200"
       cy="852.36218"
       r="107.73603" />
  </g>
</svg>
